<svg width="190" height="34" viewBox="0 0 190 34" fill="none" xmlns="http://www.w3.org/2000/svg">
<rect x="156" width="34" height="34" rx="4" fill="#F3F3F4"/>
<path d="M169.57 24.7889C167.442 24.7889 165.459 24.1514 163.789 23.0514C165.206 23.1459 167.708 22.9197 169.264 21.3909C166.923 21.2803 165.868 19.4311 165.73 18.6409C165.929 18.7199 166.877 18.8148 167.413 18.5935C164.72 17.8981 164.307 15.4642 164.399 14.7214C164.904 15.0849 165.761 15.2113 166.097 15.1797C163.588 13.3306 164.491 10.549 164.935 9.94838C166.735 12.5178 169.433 13.9609 172.771 14.0412C172.708 13.7568 172.675 13.4608 172.675 13.1567C172.675 10.9746 174.387 9.20557 176.5 9.20557C177.603 9.20557 178.598 9.68848 179.296 10.4609C180.033 10.2829 181.143 9.86621 181.686 9.50585C181.412 10.5173 180.561 11.3611 180.046 11.6739C180.041 11.6632 180.05 11.6845 180.046 11.6739C180.498 11.6034 181.722 11.3611 182.206 11.0231C181.967 11.5913 181.064 12.5362 180.323 13.0651C180.461 19.3266 175.81 24.7889 169.57 24.7889Z" fill="#18840D"/>
<rect x="104" width="34" height="34" rx="4" fill="#F3F3F4"/>
<path d="M124.693 16.4939L125.134 13.6949H122.378V11.8794C122.378 11.1135 122.762 10.3664 123.996 10.3664H125.25V7.98355C125.25 7.98355 124.113 7.79443 123.026 7.79443C120.756 7.79443 119.273 9.13527 119.273 11.5617V13.6949H116.75V16.4939H119.273V26.2111H122.378V16.4939H124.693Z" fill="#18840D"/>
<rect x="52" width="34" height="34" rx="4" fill="#F3F3F4"/>
<path d="M64.2318 10.0204C64.2318 11.2498 63.2373 12.2464 62.0105 12.2464C60.7836 12.2464 59.7891 11.2498 59.7891 10.0204C59.7891 8.79104 60.7836 7.79443 62.0105 7.79443C63.2373 7.79443 64.2318 8.79104 64.2318 10.0204Z" fill="#18840D"/>
<path d="M60.0928 13.8826H63.8901V26.2111H60.0928V13.8826Z" fill="#18840D"/>
<path d="M70.0037 13.8826H66.2064V26.2111H70.0037C70.0037 26.2111 70.0037 22.3299 70.0037 19.9032C70.0037 18.4467 70.4679 16.9837 72.32 16.9837C74.4131 16.9837 74.4005 18.8899 74.3908 20.3666C74.378 22.2968 74.4085 24.2666 74.4085 26.2111H78.2057V19.7044C78.1736 15.5497 77.1631 13.6353 73.8389 13.6353C71.8647 13.6353 70.641 14.5955 70.0037 15.4643V13.8826Z" fill="#18840D"/>
<rect width="34" height="34" rx="4" fill="#F3F3F4"/>
<path d="M23.4432 11.9382C23.4432 12.701 22.8248 13.3194 22.062 13.3194C21.2991 13.3194 20.6807 12.701 20.6807 11.9382C20.6807 11.1753 21.2991 10.5569 22.062 10.5569C22.8248 10.5569 23.4432 11.1753 23.4432 11.9382Z" fill="#18840D"/>
<path fill-rule="evenodd" clip-rule="evenodd" d="M16.9974 21.6069C19.5402 21.6069 21.6016 19.5456 21.6016 17.0028C21.6016 14.46 19.5402 12.3986 16.9974 12.3986C14.4546 12.3986 12.3932 14.46 12.3932 17.0028C12.3932 19.5456 14.4546 21.6069 16.9974 21.6069ZM16.9974 19.7653C18.5231 19.7653 19.7599 18.5285 19.7599 17.0028C19.7599 15.4771 18.5231 14.2403 16.9974 14.2403C15.4717 14.2403 14.2349 15.4771 14.2349 17.0028C14.2349 18.5285 15.4717 19.7653 16.9974 19.7653Z" fill="#18840D"/>
<path fill-rule="evenodd" clip-rule="evenodd" d="M7.78906 16.6344C7.78906 13.5401 7.78906 11.993 8.39125 10.8111C8.92095 9.77154 9.76617 8.92632 10.8058 8.39662C11.9876 7.79443 13.5348 7.79443 16.6291 7.79443H17.3657C20.46 7.79443 22.0072 7.79443 23.189 8.39662C24.2286 8.92632 25.0738 9.77154 25.6035 10.8111C26.2057 11.993 26.2057 13.5401 26.2057 16.6344V17.3711C26.2057 20.4654 26.2057 22.0125 25.6035 23.1944C25.0738 24.234 24.2286 25.0792 23.189 25.6089C22.0072 26.2111 20.46 26.2111 17.3657 26.2111H16.6291C13.5348 26.2111 11.9876 26.2111 10.8058 25.6089C9.76617 25.0792 8.92095 24.234 8.39125 23.1944C7.78906 22.0125 7.78906 20.4654 7.78906 17.3711V16.6344ZM16.6291 9.6361H17.3657C18.9433 9.6361 20.0157 9.63753 20.8446 9.70526C21.652 9.77123 22.0649 9.8908 22.3529 10.0376C23.046 10.3907 23.6095 10.9542 23.9626 11.6472C24.1094 11.9353 24.2289 12.3482 24.2949 13.1556C24.3626 13.9845 24.3641 15.0569 24.3641 16.6344V17.3711C24.3641 18.9486 24.3626 20.021 24.2949 20.8499C24.2289 21.6574 24.1094 22.0703 23.9626 22.3583C23.6095 23.0514 23.046 23.6148 22.3529 23.968C22.0649 24.1147 21.652 24.2343 20.8446 24.3003C20.0157 24.368 18.9433 24.3694 17.3657 24.3694H16.6291C15.0515 24.3694 13.9791 24.368 13.1502 24.3003C12.3428 24.2343 11.9299 24.1147 11.6419 23.968C10.9488 23.6148 10.3853 23.0514 10.0322 22.3583C9.88543 22.0703 9.76586 21.6574 9.69989 20.8499C9.63216 20.021 9.63073 18.9486 9.63073 17.3711V16.6344C9.63073 15.0569 9.63216 13.9845 9.69989 13.1556C9.76586 12.3482 9.88543 11.9353 10.0322 11.6472C10.3853 10.9542 10.9488 10.3907 11.6419 10.0376C11.9299 9.8908 12.3428 9.77123 13.1502 9.70526C13.9791 9.63753 15.0515 9.6361 16.6291 9.6361Z" fill="#18840D"/>
</svg>
